<?xml version="1.0"?>
<svg xmlns="http://www.w3.org/2000/svg" version="1.1" width="1142.125" height="1082.0995">
  <g style="stroke:#000;stroke-width:2" transform="translate(1.0625,28.693171)">
    <path d="M -238397.21,-1000000 -1000000,-368040.22 314.05768,276.25345 528.63423,154.70142 z" style="fill:#0022db;"/>
    <path d="m -1000000,-368040.22 0,471595.69 L 341.67666,427.46117 l 3.37838,-63.8515 -30.99736,-87.35622 z" style="fill:#b285c1;"/>
    <path d="m 314.05768,276.25345 30.99736,87.35622 349.49645,-13.79591 9.19363,-17.97314 -175.11089,-177.1392 z" style="fill:#226726;"/>
    <path d="M -238397.21,-1000000 528.63423,154.70142 703.74512,331.84062 901.60083,261.08973 10589.36,-1000000 z" style="fill:#cc3c00;"/>
    <path d="m 345.05504,363.60967 -3.37838,63.8515 164.96374,339.40815 73.88075,-80.43175 114.03034,-336.62381 z" style="fill:#ffe414;"/>
    <path d="M 703.74512,331.84062 694.55149,349.81376 580.52115,686.43757 721.54786,680.47105 1386.4696,506.06535 901.60083,261.08973 z" style="fill:#14fff2;"/>
    <path d="M 901.60083,261.08973 1386.4696,506.06535 1000000,292524.87 10589.36,-1000000 z" style="fill:#56ff14;"/>
    <path d="M -1000000,103555.47 -512787.03,1000000 506.6404,766.86932 341.67666,427.46117 z" style="fill:#ff3514;"/>
    <path d="M 721.54786,680.47105 580.52115,686.43757 506.6404,766.86932 -512787.03,1000000 1000000,480853.23 z" style="fill:#ee14ff;"/>
    <path d="M 721.54786,680.47105 1000000,480853.23 l 0,-188328.36 L 1386.4696,506.06535 z" style="fill:#ffb914;"/>
  </g>
  <g style="stroke:#000;stroke-width:4" transform="translate(1.0625,28.693171)">
    <circle transform="translate(337,149)" r="2" cx="0" cy="0" d="M 2,0 C 2,1.1045695 1.1045695,2 0,2 -1.1045695,2 -2,1.1045695 -2,0 c 0,-1.1045695 0.8954305,-2 2,-2 1.1045695,0 2,0.8954305 2,2 z"/>
    <circle transform="translate(249,388)" r="2" cx="0" cy="0" d="M 2,0 C 2,1.1045695 1.1045695,2 0,2 -1.1045695,2 -2,1.1045695 -2,0 c 0,-1.1045695 0.8954305,-2 2,-2 1.1045695,0 2,0.8954305 2,2 z"/>
    <circle transform="translate(435,322)" r="2" cx="0" cy="0" d="M 2,0 C 2,1.1045695 1.1045695,2 0,2 -1.1045695,2 -2,1.1045695 -2,0 c 0,-1.1045695 0.8954305,-2 2,-2 1.1045695,0 2,0.8954305 2,2 z"/>
    <circle transform="translate(697,63)" r="2" cx="0" cy="0" d="M 2,0 C 2,1.1045695 1.1045695,2 0,2 -1.1045695,2 -2,1.1045695 -2,0 c 0,-1.1045695 0.8954305,-2 2,-2 1.1045695,0 2,0.8954305 2,2 z"/>
    <circle transform="translate(438,398)" r="2" cx="0" cy="0" d="M 2,0 C 2,1.1045695 1.1045695,2 0,2 -1.1045695,2 -2,1.1045695 -2,0 c 0,-1.1045695 0.8954305,-2 2,-2 1.1045695,0 2,0.8954305 2,2 z"/>
    <circle transform="translate(869,544)" r="2" cx="0" cy="0" d="M 2,0 C 2,1.1045695 1.1045695,2 0,2 -1.1045695,2 -2,1.1045695 -2,0 c 0,-1.1045695 0.8954305,-2 2,-2 1.1045695,0 2,0.8954305 2,2 z"/>
    <circle transform="translate(1110,67)" r="2" cx="0" cy="0" d="M 2,0 C 2,1.1045695 1.1045695,2 0,2 -1.1045695,2 -2,1.1045695 -2,0 c 0,-1.1045695 0.8954305,-2 2,-2 1.1045695,0 2,0.8954305 2,2 z"/>
    <circle transform="translate(259,485)" r="2" cx="0" cy="0" d="M 2,0 C 2,1.1045695 1.1045695,2 0,2 -1.1045695,2 -2,1.1045695 -2,0 c 0,-1.1045695 0.8954305,-2 2,-2 1.1045695,0 2,0.8954305 2,2 z"/>
    <circle transform="translate(880,804)" r="2" cx="0" cy="0" d="M 2,0 C 2,1.1045695 1.1045695,2 0,2 -1.1045695,2 -2,1.1045695 -2,0 c 0,-1.1045695 0.8954305,-2 2,-2 1.1045695,0 2,0.8954305 2,2 z"/>
    <circle transform="translate(917,727)" r="2" cx="0" cy="0" d="M 2,0 C 2,1.1045695 1.1045695,2 0,2 -1.1045695,2 -2,1.1045695 -2,0 c 0,-1.1045695 0.8954305,-2 2,-2 1.1045695,0 2,0.8954305 2,2 z"/>
  </g>
</svg>
